<svg width="21" height="20" viewBox="0 0 21 20" fill="none" xmlns="http://www.w3.org/2000/svg">
<path fill-rule="evenodd" clip-rule="evenodd" d="M9.9646 1.00888C10.2655 0.77483 10.6869 0.77483 10.9878 1.00888L18.4878 6.84222C18.6908 7.00009 18.8095 7.24285 18.8095 7.50001V16.6667C18.8095 17.3298 18.5461 17.9656 18.0773 18.4344C17.6084 18.9033 16.9726 19.1667 16.3095 19.1667H4.64285C3.97981 19.1667 3.34393 18.9033 2.87509 18.4344C2.40624 17.9656 2.14285 17.3298 2.14285 16.6667V7.50001C2.14285 7.24285 2.26158 7.00009 2.46457 6.84222L9.9646 1.00888ZM3.80952 7.90758V16.6667C3.80952 16.8877 3.89732 17.0997 4.05359 17.2559C4.20988 17.4122 4.42184 17.5 4.64285 17.5H16.3095C16.5305 17.5 16.7425 17.4122 16.8988 17.2559C17.055 17.0997 17.1429 16.8877 17.1429 16.6667V7.90758L10.4762 2.72239L3.80952 7.90758Z" fill="#E5A712"/>
<path fill-rule="evenodd" clip-rule="evenodd" d="M7.14285 9.99999C7.14285 9.53974 7.51595 9.16666 7.97619 9.16666H12.9762C13.4364 9.16666 13.8095 9.53974 13.8095 9.99999V18.3333C13.8095 18.7936 13.4364 19.1667 12.9762 19.1667C12.5159 19.1667 12.1429 18.7936 12.1429 18.3333V10.8333H8.80952V18.3333C8.80952 18.7936 8.43642 19.1667 7.97619 19.1667C7.51595 19.1667 7.14285 18.7936 7.14285 18.3333V9.99999Z" fill="#E5A712"/>
</svg>
