<svg width="24" height="25" viewBox="0 0 24 25" fill="none" xmlns="http://www.w3.org/2000/svg">
<path fill-rule="evenodd" clip-rule="evenodd" d="M4.9507 2.98103C5.72863 2.65801 6.56267 2.49173 7.405 2.49173C8.24733 2.49173 9.08138 2.65801 9.85931 2.98103C10.6372 3.30405 11.3438 3.77746 11.9383 4.37411L11.9417 4.37745L12 4.43656L12.0583 4.37746L12.0617 4.37411C12.6563 3.77746 13.3628 3.30405 14.1407 2.98103C14.9186 2.65801 15.7527 2.49173 16.595 2.49173C17.4373 2.49173 18.2714 2.65801 19.0493 2.98103C19.827 3.30394 20.5333 3.77713 21.1277 4.3735C23.6727 6.91919 23.7293 11.1283 20.7136 14.2005L20.7071 14.2071L12.7071 22.2071C12.5196 22.3946 12.2652 22.5 12 22.5C11.7348 22.5 11.4804 22.3946 11.2929 22.2071L3.28634 14.2005C0.270638 11.1284 0.327258 6.91918 2.87229 4.37349C3.46674 3.77713 4.17303 3.30394 4.9507 2.98103ZM7.405 4.49173C6.8259 4.49173 6.25249 4.60605 5.71767 4.82812C5.18284 5.0502 4.69711 5.37567 4.28833 5.78587L4.28711 5.78709C2.59349 7.48071 2.38976 10.4292 4.71052 12.7963L12 20.0858L19.2895 12.7963C21.6102 10.4293 21.4065 7.48071 19.7129 5.78709L19.7117 5.78587C19.3029 5.37567 18.8172 5.0502 18.2823 4.82812C17.7475 4.60605 17.1741 4.49173 16.595 4.49173C16.0159 4.49173 15.4425 4.60605 14.9077 4.82812C14.3735 5.04991 13.8884 5.37481 13.4799 5.78425C13.4794 5.78479 13.4789 5.78533 13.4783 5.78587L12.7117 6.56252C12.5238 6.75285 12.2675 6.85999 12 6.85999C11.7325 6.85999 11.4762 6.75285 11.2883 6.56252L10.5217 5.78587C10.5211 5.78533 10.5206 5.78479 10.5201 5.78425C10.1116 5.37481 9.62646 5.04991 9.09234 4.82812C8.55751 4.60605 7.9841 4.49173 7.405 4.49173Z" fill="#181818"/>
</svg>
