<svg width="21" height="20" viewBox="0 0 21 20" fill="none" xmlns="http://www.w3.org/2000/svg">
<path fill-rule="evenodd" clip-rule="evenodd" d="M16.8988 3.57742C17.2242 3.90286 17.2242 4.4305 16.8988 4.75593L5.23211 16.4226C4.90668 16.748 4.37904 16.748 4.0536 16.4226C3.72817 16.0972 3.72817 15.5695 4.0536 15.2441L15.7203 3.57742C16.0457 3.25198 16.5733 3.25198 16.8988 3.57742Z" fill="#181818"/>
<path fill-rule="evenodd" clip-rule="evenodd" d="M5.89286 4.16667C5.20251 4.16667 4.64286 4.72631 4.64286 5.41667C4.64286 6.10702 5.20251 6.66667 5.89286 6.66667C6.58322 6.66667 7.14286 6.10702 7.14286 5.41667C7.14286 4.72631 6.58322 4.16667 5.89286 4.16667ZM2.9762 5.41667C2.9762 3.80584 4.28203 2.5 5.89286 2.5C7.50369 2.5 8.80953 3.80584 8.80953 5.41667C8.80953 7.0275 7.50369 8.33333 5.89286 8.33333C4.28203 8.33333 2.9762 7.0275 2.9762 5.41667Z" fill="#181818"/>
<path fill-rule="evenodd" clip-rule="evenodd" d="M15.0595 13.3333C14.3692 13.3333 13.8095 13.893 13.8095 14.5833C13.8095 15.2737 14.3692 15.8333 15.0595 15.8333C15.7499 15.8333 16.3095 15.2737 16.3095 14.5833C16.3095 13.893 15.7499 13.3333 15.0595 13.3333ZM12.1429 14.5833C12.1429 12.9725 13.4487 11.6667 15.0595 11.6667C16.6704 11.6667 17.9762 12.9725 17.9762 14.5833C17.9762 16.1942 16.6704 17.5 15.0595 17.5C13.4487 17.5 12.1429 16.1942 12.1429 14.5833Z" fill="#181818"/>
</svg>
