<svg width="18" height="20" viewBox="0 0 18 20" fill="none" xmlns="http://www.w3.org/2000/svg">
<path d="M12.4921 3.72429C11.5397 2.91715 10.5588 2.07984 9.56591 1.09017L9 0.528259L8.44445 1.09096C6.65715 2.88302 5.8127 5.63461 5.44603 7.28541C5.16537 6.85041 4.95712 6.37278 4.82937 5.87112L4.49365 4.57508L3.51746 5.49255C1.80715 7.0981 0.66667 8.69096 0.66667 11.2417C0.650699 13.0816 1.24994 14.8741 2.36922 16.3345C3.4885 17.7948 5.06363 18.8393 6.84445 19.3021C7.38101 19.4326 7.92866 19.5123 8.48017 19.5402C8.65259 19.562 8.82619 19.5733 9 19.5743C9.09124 19.5743 9.18019 19.5664 9.26905 19.5608C11.4311 19.4957 13.4827 18.5908 14.9883 17.0378C16.4939 15.4849 17.3351 13.4063 17.3333 11.2433C17.3333 7.83541 15.0897 5.93064 12.4921 3.72429ZM9.15877 17.9735C9.07934 17.9735 9 17.9814 8.91587 17.9807C8.20153 17.9588 7.52364 17.6601 7.02544 17.1477C6.52725 16.6353 6.24776 15.9493 6.24603 15.2346C6.24603 14.2283 6.78572 13.7267 8.00715 12.687C8.31508 12.4251 8.65 12.1402 9.00238 11.814C9.31115 12.0941 9.61115 12.3481 9.8881 12.5838C11.1151 13.6251 11.7555 14.2164 11.7555 15.2322C11.7542 15.9342 11.4846 16.6092 11.0018 17.1188C10.519 17.6284 9.85962 17.9342 9.15877 17.9735ZM13.1429 16.5679L13.127 16.5791C13.2694 16.1451 13.3423 15.6913 13.3429 15.2346C13.3429 13.437 12.1635 12.4354 10.9159 11.3759C10.4738 11.0013 10.0174 10.614 9.56191 10.1584L9 9.59735L8.43889 10.1584C7.9246 10.6719 7.42143 11.1005 6.97777 11.4783C5.73334 12.537 4.65794 13.4521 4.65794 15.2346C4.65963 15.711 4.74008 16.1837 4.89603 16.6338C4.06989 15.9994 3.40157 15.1827 2.94325 14.2473C2.48494 13.312 2.24903 12.2833 2.25398 11.2417C2.24092 9.84906 2.77996 8.50788 3.75317 7.5116C3.92081 7.85169 4.11955 8.17556 4.34683 8.47905C4.51283 8.70305 4.74075 8.87359 5.00249 8.96962C5.26423 9.06566 5.54836 9.08301 5.81984 9.01953C6.09602 8.95804 6.34865 8.81831 6.54752 8.61705C6.74639 8.41579 6.88309 8.1615 6.94127 7.88461C7.27358 6.06052 7.99232 4.32863 9.04924 2.80524C9.88648 3.59889 10.7159 4.30127 11.4643 4.93699C13.95 7.0481 15.75 8.5735 15.75 11.2465C15.7519 12.274 15.5178 13.2882 15.0656 14.2109C14.6134 15.1335 13.9553 15.9399 13.1421 16.5679H13.1429Z" fill="#181818"/>
</svg>
